<mxfile host="app.diagrams.net" modified="2023-04-13T08:57:17.635Z" agent="Mozilla/5.0 (Windows NT 10.0; Win64; x64) AppleWebKit/537.36 (KHTML, like Gecko) Chrome/112.0.0.0 Safari/537.36 Edg/112.0.1722.39" etag="XmYXrPgt-XgUYfShqwmM" version="21.1.7" type="onedrive">
  <diagram name="Seite-1" id="QBvbquZysDNYYFKQdhot">
    <mxGraphModel grid="1" page="1" gridSize="10" guides="1" tooltips="1" connect="1" arrows="1" fold="1" pageScale="1" pageWidth="827" pageHeight="1169" math="0" shadow="0">
      <root>
        <mxCell id="0" />
        <mxCell id="1" parent="0" />
        <mxCell id="0cWSvdugOwKaCXbmKs3s-5" style="edgeStyle=orthogonalEdgeStyle;rounded=0;orthogonalLoop=1;jettySize=auto;html=1;dashed=1;exitX=1;exitY=1;exitDx=0;exitDy=0;exitPerimeter=0;" edge="1" parent="1" source="0cWSvdugOwKaCXbmKs3s-2" target="0cWSvdugOwKaCXbmKs3s-4">
          <mxGeometry relative="1" as="geometry" />
        </mxCell>
        <mxCell id="0cWSvdugOwKaCXbmKs3s-6" value="Views movie &lt;br&gt;informations using" style="edgeLabel;html=1;align=center;verticalAlign=middle;resizable=0;points=[];rotation=90;" connectable="0" vertex="1" parent="0cWSvdugOwKaCXbmKs3s-5">
          <mxGeometry x="-0.1538" y="3" relative="1" as="geometry">
            <mxPoint x="-3" y="17" as="offset" />
          </mxGeometry>
        </mxCell>
        <mxCell id="0cWSvdugOwKaCXbmKs3s-2" value="User" style="shape=umlActor;verticalLabelPosition=bottom;verticalAlign=top;html=1;outlineConnect=0;fillColor=#d5e8d4;strokeColor=#82b366;" vertex="1" parent="1">
          <mxGeometry x="170" y="150" width="30" height="60" as="geometry" />
        </mxCell>
        <mxCell id="0cWSvdugOwKaCXbmKs3s-8" style="edgeStyle=orthogonalEdgeStyle;rounded=0;orthogonalLoop=1;jettySize=auto;html=1;exitX=1;exitY=0.25;exitDx=0;exitDy=0;entryX=0;entryY=0.25;entryDx=0;entryDy=0;dashed=1;" edge="1" parent="1" source="0cWSvdugOwKaCXbmKs3s-4" target="0cWSvdugOwKaCXbmKs3s-7">
          <mxGeometry relative="1" as="geometry" />
        </mxCell>
        <mxCell id="0cWSvdugOwKaCXbmKs3s-9" value="Sends API calls to &lt;br&gt;collect required data" style="edgeLabel;html=1;align=center;verticalAlign=middle;resizable=0;points=[];" connectable="0" vertex="1" parent="0cWSvdugOwKaCXbmKs3s-8">
          <mxGeometry x="0.1833" y="-1" relative="1" as="geometry">
            <mxPoint x="-22" as="offset" />
          </mxGeometry>
        </mxCell>
        <mxCell id="0cWSvdugOwKaCXbmKs3s-4" value="BIMDb&lt;br&gt;&lt;font style=&quot;font-size: 10px;&quot;&gt;[Internal Software System]&lt;/font&gt;&lt;br&gt;Allows Users to view detailed informations about a movie" style="rounded=0;whiteSpace=wrap;html=1;fillColor=#d5e8d4;strokeColor=#82b366;" vertex="1" parent="1">
          <mxGeometry x="120" y="400" width="160" height="60" as="geometry" />
        </mxCell>
        <mxCell id="0cWSvdugOwKaCXbmKs3s-10" style="edgeStyle=orthogonalEdgeStyle;rounded=0;orthogonalLoop=1;jettySize=auto;html=1;exitX=0;exitY=0.75;exitDx=0;exitDy=0;entryX=1;entryY=0.75;entryDx=0;entryDy=0;dashed=1;" edge="1" parent="1" source="0cWSvdugOwKaCXbmKs3s-7" target="0cWSvdugOwKaCXbmKs3s-4">
          <mxGeometry relative="1" as="geometry" />
        </mxCell>
        <mxCell id="0cWSvdugOwKaCXbmKs3s-11" value="Sends the called data to &lt;br&gt;the internal system" style="edgeLabel;html=1;align=center;verticalAlign=middle;resizable=0;points=[];" connectable="0" vertex="1" parent="0cWSvdugOwKaCXbmKs3s-10">
          <mxGeometry x="0.1167" y="2" relative="1" as="geometry">
            <mxPoint x="14" as="offset" />
          </mxGeometry>
        </mxCell>
        <mxCell id="0cWSvdugOwKaCXbmKs3s-7" value="TMDB&lt;br&gt;&lt;font style=&quot;font-size: 10px;&quot;&gt;[External Software System]&lt;/font&gt;&lt;br&gt;Database which&amp;nbsp; stores all required movie informations" style="rounded=0;whiteSpace=wrap;html=1;fillColor=#f5f5f5;fontColor=#333333;strokeColor=#666666;" vertex="1" parent="1">
          <mxGeometry x="590" y="400" width="160" height="60" as="geometry" />
        </mxCell>
        <mxCell id="0cWSvdugOwKaCXbmKs3s-12" style="edgeStyle=orthogonalEdgeStyle;rounded=0;orthogonalLoop=1;jettySize=auto;html=1;dashed=1;exitX=1;exitY=1;exitDx=0;exitDy=0;exitPerimeter=0;" edge="1" parent="1" source="0cWSvdugOwKaCXbmKs3s-14" target="0cWSvdugOwKaCXbmKs3s-17">
          <mxGeometry relative="1" as="geometry" />
        </mxCell>
        <mxCell id="0cWSvdugOwKaCXbmKs3s-13" value="Views movie &lt;br&gt;informations using" style="edgeLabel;html=1;align=center;verticalAlign=middle;resizable=0;points=[];rotation=90;" connectable="0" vertex="1" parent="0cWSvdugOwKaCXbmKs3s-12">
          <mxGeometry x="-0.1538" y="3" relative="1" as="geometry">
            <mxPoint x="-3" y="17" as="offset" />
          </mxGeometry>
        </mxCell>
        <mxCell id="0cWSvdugOwKaCXbmKs3s-14" value="User" style="shape=umlActor;verticalLabelPosition=bottom;verticalAlign=top;html=1;outlineConnect=0;fillColor=#d5e8d4;strokeColor=#82b366;" vertex="1" parent="1">
          <mxGeometry x="120" y="555" width="30" height="60" as="geometry" />
        </mxCell>
        <mxCell id="0cWSvdugOwKaCXbmKs3s-15" style="edgeStyle=orthogonalEdgeStyle;rounded=0;orthogonalLoop=1;jettySize=auto;html=1;entryX=0;entryY=0.25;entryDx=0;entryDy=0;dashed=1;exitX=1;exitY=0.25;exitDx=0;exitDy=0;" edge="1" parent="1" source="0cWSvdugOwKaCXbmKs3s-22" target="0cWSvdugOwKaCXbmKs3s-20">
          <mxGeometry relative="1" as="geometry">
            <mxPoint x="580" y="995" as="sourcePoint" />
          </mxGeometry>
        </mxCell>
        <mxCell id="0cWSvdugOwKaCXbmKs3s-16" value="Makes API calls to&lt;br&gt;&lt;font style=&quot;font-size: 9px;&quot;&gt;[JSON/HTTPS]&lt;/font&gt;" style="edgeLabel;html=1;align=center;verticalAlign=middle;resizable=0;points=[];" connectable="0" vertex="1" parent="0cWSvdugOwKaCXbmKs3s-15">
          <mxGeometry x="0.1833" y="-1" relative="1" as="geometry">
            <mxPoint x="-28" as="offset" />
          </mxGeometry>
        </mxCell>
        <mxCell id="0cWSvdugOwKaCXbmKs3s-24" style="edgeStyle=orthogonalEdgeStyle;rounded=0;orthogonalLoop=1;jettySize=auto;html=1;exitX=1;exitY=0.25;exitDx=0;exitDy=0;entryX=0.5;entryY=0;entryDx=0;entryDy=0;dashed=1;" edge="1" parent="1" source="0cWSvdugOwKaCXbmKs3s-17" target="0cWSvdugOwKaCXbmKs3s-22">
          <mxGeometry relative="1" as="geometry" />
        </mxCell>
        <mxCell id="0cWSvdugOwKaCXbmKs3s-25" value="Makes API calls to&lt;br&gt;&lt;font style=&quot;font-size: 9px;&quot;&gt;[JSON/HTTPS]&lt;/font&gt;" style="edgeLabel;html=1;align=center;verticalAlign=middle;resizable=0;points=[];" connectable="0" vertex="1" parent="0cWSvdugOwKaCXbmKs3s-24">
          <mxGeometry x="0.0109" y="-1" relative="1" as="geometry">
            <mxPoint x="-61" as="offset" />
          </mxGeometry>
        </mxCell>
        <mxCell id="0cWSvdugOwKaCXbmKs3s-17" value="Web Application&lt;br&gt;&lt;font style=&quot;font-size: 10px;&quot;&gt;[Container: JavaScript and ...]&lt;/font&gt;&lt;br&gt;Provides the functionality and the frontend for the user to view the required movie informations." style="rounded=0;whiteSpace=wrap;html=1;fillColor=#d5e8d4;strokeColor=#82b366;" vertex="1" parent="1">
          <mxGeometry x="70" y="810" width="160" height="100" as="geometry" />
        </mxCell>
        <mxCell id="0cWSvdugOwKaCXbmKs3s-18" style="edgeStyle=orthogonalEdgeStyle;rounded=0;orthogonalLoop=1;jettySize=auto;html=1;exitX=0;exitY=0.75;exitDx=0;exitDy=0;entryX=1;entryY=0.75;entryDx=0;entryDy=0;dashed=1;" edge="1" parent="1" source="0cWSvdugOwKaCXbmKs3s-20" target="0cWSvdugOwKaCXbmKs3s-22">
          <mxGeometry relative="1" as="geometry" />
        </mxCell>
        <mxCell id="0cWSvdugOwKaCXbmKs3s-19" value="Sends required data to" style="edgeLabel;html=1;align=center;verticalAlign=middle;resizable=0;points=[];" connectable="0" vertex="1" parent="0cWSvdugOwKaCXbmKs3s-18">
          <mxGeometry x="0.1167" y="2" relative="1" as="geometry">
            <mxPoint x="21" y="3" as="offset" />
          </mxGeometry>
        </mxCell>
        <mxCell id="0cWSvdugOwKaCXbmKs3s-20" value="TMDB&lt;br&gt;[External Software System]&lt;br&gt;Database which&amp;nbsp; stores all required movie informations" style="rounded=0;whiteSpace=wrap;html=1;fillColor=#f5f5f5;fontColor=#333333;strokeColor=#666666;" vertex="1" parent="1">
          <mxGeometry x="870" y="1060" width="160" height="60" as="geometry" />
        </mxCell>
        <mxCell id="0cWSvdugOwKaCXbmKs3s-26" style="edgeStyle=orthogonalEdgeStyle;rounded=0;orthogonalLoop=1;jettySize=auto;html=1;entryX=1;entryY=0.5;entryDx=0;entryDy=0;dashed=1;" edge="1" parent="1" source="0cWSvdugOwKaCXbmKs3s-22" target="0cWSvdugOwKaCXbmKs3s-23">
          <mxGeometry relative="1" as="geometry" />
        </mxCell>
        <mxCell id="0cWSvdugOwKaCXbmKs3s-27" value="Sends collected&amp;nbsp;&lt;br&gt;raw data to" style="edgeLabel;html=1;align=center;verticalAlign=middle;resizable=0;points=[];" connectable="0" vertex="1" parent="0cWSvdugOwKaCXbmKs3s-26">
          <mxGeometry x="-0.1704" relative="1" as="geometry">
            <mxPoint as="offset" />
          </mxGeometry>
        </mxCell>
        <mxCell id="0cWSvdugOwKaCXbmKs3s-22" value="API Application&lt;br&gt;&lt;font style=&quot;&quot;&gt;&lt;font style=&quot;font-size: 10px;&quot;&gt;[Container: Java and Spring MVC]&lt;/font&gt;&lt;br&gt;Provides raw movie data collection via JSON/HTTPS API&lt;br&gt;&lt;/font&gt;" style="rounded=0;whiteSpace=wrap;html=1;fillColor=#d5e8d4;strokeColor=#82b366;" vertex="1" parent="1">
          <mxGeometry x="440" y="1060" width="204" height="60" as="geometry" />
        </mxCell>
        <mxCell id="0cWSvdugOwKaCXbmKs3s-29" style="edgeStyle=orthogonalEdgeStyle;rounded=0;orthogonalLoop=1;jettySize=auto;html=1;exitX=0.5;exitY=0;exitDx=0;exitDy=0;entryX=0.5;entryY=1;entryDx=0;entryDy=0;dashed=1;" edge="1" parent="1" source="0cWSvdugOwKaCXbmKs3s-23" target="0cWSvdugOwKaCXbmKs3s-17">
          <mxGeometry relative="1" as="geometry">
            <Array as="points">
              <mxPoint x="150" y="930" />
              <mxPoint x="150" y="930" />
            </Array>
          </mxGeometry>
        </mxCell>
        <mxCell id="0cWSvdugOwKaCXbmKs3s-30" value="Sends enhanced&lt;br&gt;data to" style="edgeLabel;html=1;align=center;verticalAlign=middle;resizable=0;points=[];rotation=90;" connectable="0" vertex="1" parent="0cWSvdugOwKaCXbmKs3s-29">
          <mxGeometry x="0.1358" y="-1" relative="1" as="geometry">
            <mxPoint x="-1" y="12" as="offset" />
          </mxGeometry>
        </mxCell>
        <mxCell id="0cWSvdugOwKaCXbmKs3s-23" value="Data Enhancement Application&lt;br&gt;&lt;font style=&quot;font-size: 10px;&quot;&gt;[Container: Java and Spring MVC]&lt;br&gt;&lt;/font&gt;Enhances the raw data, such that it can be provided to the user" style="rounded=0;whiteSpace=wrap;html=1;fillColor=#d5e8d4;strokeColor=#82b366;" vertex="1" parent="1">
          <mxGeometry x="70" y="1040" width="170" height="100" as="geometry" />
        </mxCell>
        <mxCell id="0cWSvdugOwKaCXbmKs3s-32" value="BIMDb&lt;br&gt;&lt;div style=&quot;&quot;&gt;&lt;span style=&quot;font-size: 10px; background-color: initial;&quot;&gt;[Software System]&lt;/span&gt;&lt;/div&gt;" style="text;html=1;strokeColor=none;fillColor=none;align=left;verticalAlign=middle;whiteSpace=wrap;rounded=0;" vertex="1" parent="1">
          <mxGeometry x="60" y="1150" width="140" height="30" as="geometry" />
        </mxCell>
        <mxCell id="0cWSvdugOwKaCXbmKs3s-33" value="" style="endArrow=none;html=1;rounded=0;dashed=1;" edge="1" parent="1">
          <mxGeometry width="50" height="50" relative="1" as="geometry">
            <mxPoint x="60" y="1180" as="sourcePoint" />
            <mxPoint x="60" y="790" as="targetPoint" />
          </mxGeometry>
        </mxCell>
        <mxCell id="0cWSvdugOwKaCXbmKs3s-34" value="" style="endArrow=none;html=1;rounded=0;dashed=1;" edge="1" parent="1">
          <mxGeometry width="50" height="50" relative="1" as="geometry">
            <mxPoint x="680" y="1180" as="sourcePoint" />
            <mxPoint x="680" y="790" as="targetPoint" />
          </mxGeometry>
        </mxCell>
        <mxCell id="0cWSvdugOwKaCXbmKs3s-35" value="" style="endArrow=none;html=1;rounded=0;dashed=1;" edge="1" parent="1">
          <mxGeometry width="50" height="50" relative="1" as="geometry">
            <mxPoint x="60" y="1180" as="sourcePoint" />
            <mxPoint x="680" y="1180" as="targetPoint" />
          </mxGeometry>
        </mxCell>
        <mxCell id="0cWSvdugOwKaCXbmKs3s-36" value="" style="endArrow=none;html=1;rounded=0;dashed=1;" edge="1" parent="1">
          <mxGeometry width="50" height="50" relative="1" as="geometry">
            <mxPoint x="60" y="790" as="sourcePoint" />
            <mxPoint x="680" y="790" as="targetPoint" />
          </mxGeometry>
        </mxCell>
        <mxCell id="0cWSvdugOwKaCXbmKs3s-45" style="edgeStyle=orthogonalEdgeStyle;rounded=0;orthogonalLoop=1;jettySize=auto;html=1;exitX=1;exitY=0.75;exitDx=0;exitDy=0;entryX=0.5;entryY=0;entryDx=0;entryDy=0;dashed=1;" edge="1" parent="1" source="0cWSvdugOwKaCXbmKs3s-39" target="0cWSvdugOwKaCXbmKs3s-44">
          <mxGeometry relative="1" as="geometry" />
        </mxCell>
        <mxCell id="0cWSvdugOwKaCXbmKs3s-50" value="uses" style="edgeLabel;html=1;align=center;verticalAlign=middle;resizable=0;points=[];" connectable="0" vertex="1" parent="0cWSvdugOwKaCXbmKs3s-45">
          <mxGeometry x="-0.2226" y="-2" relative="1" as="geometry">
            <mxPoint x="-26" as="offset" />
          </mxGeometry>
        </mxCell>
        <mxCell id="0cWSvdugOwKaCXbmKs3s-46" style="edgeStyle=orthogonalEdgeStyle;rounded=0;orthogonalLoop=1;jettySize=auto;html=1;exitX=0;exitY=0.75;exitDx=0;exitDy=0;dashed=1;" edge="1" parent="1" source="0cWSvdugOwKaCXbmKs3s-39" target="0cWSvdugOwKaCXbmKs3s-42">
          <mxGeometry relative="1" as="geometry" />
        </mxCell>
        <mxCell id="0cWSvdugOwKaCXbmKs3s-51" value="uses" style="edgeLabel;html=1;align=center;verticalAlign=middle;resizable=0;points=[];" connectable="0" vertex="1" parent="0cWSvdugOwKaCXbmKs3s-46">
          <mxGeometry x="-0.5903" y="2" relative="1" as="geometry">
            <mxPoint x="-24" as="offset" />
          </mxGeometry>
        </mxCell>
        <mxCell id="0cWSvdugOwKaCXbmKs3s-39" value="Web Application&lt;br&gt;&lt;font style=&quot;font-size: 10px;&quot;&gt;[Container: JavaScript and ...]&lt;/font&gt;&lt;br&gt;Provides the functionality and the frontend for the user to view the required movie informations." style="rounded=0;whiteSpace=wrap;html=1;fillColor=#d5e8d4;strokeColor=#82b366;" vertex="1" parent="1">
          <mxGeometry x="333" y="1280" width="160" height="100" as="geometry" />
        </mxCell>
        <mxCell id="0cWSvdugOwKaCXbmKs3s-49" style="edgeStyle=orthogonalEdgeStyle;rounded=0;orthogonalLoop=1;jettySize=auto;html=1;entryX=0;entryY=0.5;entryDx=0;entryDy=0;exitX=0.5;exitY=1;exitDx=0;exitDy=0;dashed=1;" edge="1" parent="1" source="0cWSvdugOwKaCXbmKs3s-42" target="0cWSvdugOwKaCXbmKs3s-43">
          <mxGeometry relative="1" as="geometry" />
        </mxCell>
        <mxCell id="0cWSvdugOwKaCXbmKs3s-53" value="uses" style="edgeLabel;html=1;align=center;verticalAlign=middle;resizable=0;points=[];" connectable="0" vertex="1" parent="0cWSvdugOwKaCXbmKs3s-49">
          <mxGeometry x="0.1647" y="-3" relative="1" as="geometry">
            <mxPoint as="offset" />
          </mxGeometry>
        </mxCell>
        <mxCell id="0cWSvdugOwKaCXbmKs3s-42" value="Main Page Controller&lt;br style=&quot;border-color: var(--border-color);&quot;&gt;&lt;font style=&quot;border-color: var(--border-color); font-size: 10px;&quot;&gt;[Component: Spring MVC Rest Controller]&lt;/font&gt;&lt;br style=&quot;border-color: var(--border-color);&quot;&gt;Responsible for controlling the first overview site, where all movies are listed." style="rounded=0;whiteSpace=wrap;html=1;fillColor=#d5e8d4;strokeColor=#82b366;" vertex="1" parent="1">
          <mxGeometry x="70" y="1470" width="190" height="100" as="geometry" />
        </mxCell>
        <mxCell id="0cWSvdugOwKaCXbmKs3s-55" style="edgeStyle=orthogonalEdgeStyle;rounded=0;orthogonalLoop=1;jettySize=auto;html=1;entryX=0.5;entryY=0;entryDx=0;entryDy=0;dashed=1;" edge="1" parent="1" source="0cWSvdugOwKaCXbmKs3s-43" target="0cWSvdugOwKaCXbmKs3s-54">
          <mxGeometry relative="1" as="geometry" />
        </mxCell>
        <mxCell id="0cWSvdugOwKaCXbmKs3s-56" value="Collects data using" style="edgeLabel;html=1;align=center;verticalAlign=middle;resizable=0;points=[];rotation=90;" connectable="0" vertex="1" parent="0cWSvdugOwKaCXbmKs3s-55">
          <mxGeometry x="-0.2619" relative="1" as="geometry">
            <mxPoint y="18" as="offset" />
          </mxGeometry>
        </mxCell>
        <mxCell id="0cWSvdugOwKaCXbmKs3s-83" style="edgeStyle=orthogonalEdgeStyle;rounded=0;orthogonalLoop=1;jettySize=auto;html=1;entryX=0.5;entryY=1;entryDx=0;entryDy=0;dashed=1;" edge="1" parent="1" source="0cWSvdugOwKaCXbmKs3s-43" target="0cWSvdugOwKaCXbmKs3s-82">
          <mxGeometry relative="1" as="geometry" />
        </mxCell>
        <mxCell id="0cWSvdugOwKaCXbmKs3s-84" value="uses" style="edgeLabel;html=1;align=center;verticalAlign=middle;resizable=0;points=[];rotation=90;" connectable="0" vertex="1" parent="0cWSvdugOwKaCXbmKs3s-83">
          <mxGeometry x="0.2879" y="2" relative="1" as="geometry">
            <mxPoint x="2" y="11" as="offset" />
          </mxGeometry>
        </mxCell>
        <mxCell id="0cWSvdugOwKaCXbmKs3s-43" value="API Controller&lt;br&gt;&lt;font style=&quot;font-size: 10px;&quot;&gt;[Component: Spring MVC Rest Controller]&lt;/font&gt;&lt;br&gt;Responsible to set up the required API calls." style="rounded=0;whiteSpace=wrap;html=1;fillColor=#d5e8d4;strokeColor=#82b366;" vertex="1" parent="1">
          <mxGeometry x="323" y="1610" width="197" height="100" as="geometry" />
        </mxCell>
        <mxCell id="0cWSvdugOwKaCXbmKs3s-48" style="edgeStyle=orthogonalEdgeStyle;rounded=0;orthogonalLoop=1;jettySize=auto;html=1;entryX=1;entryY=0.5;entryDx=0;entryDy=0;exitX=0.5;exitY=1;exitDx=0;exitDy=0;dashed=1;" edge="1" parent="1" source="0cWSvdugOwKaCXbmKs3s-44" target="0cWSvdugOwKaCXbmKs3s-43">
          <mxGeometry relative="1" as="geometry" />
        </mxCell>
        <mxCell id="0cWSvdugOwKaCXbmKs3s-52" value="uses" style="edgeLabel;html=1;align=center;verticalAlign=middle;resizable=0;points=[];" connectable="0" vertex="1" parent="0cWSvdugOwKaCXbmKs3s-48">
          <mxGeometry x="0.1946" y="3" relative="1" as="geometry">
            <mxPoint as="offset" />
          </mxGeometry>
        </mxCell>
        <mxCell id="0cWSvdugOwKaCXbmKs3s-44" value="Details Page Controller&lt;br style=&quot;border-color: var(--border-color);&quot;&gt;&lt;font style=&quot;border-color: var(--border-color); font-size: 10px;&quot;&gt;[Component: Spring MVC Rest Controller]&lt;/font&gt;&lt;br style=&quot;border-color: var(--border-color);&quot;&gt;Responsible for controlling the details page of each movie." style="rounded=0;whiteSpace=wrap;html=1;fillColor=#d5e8d4;strokeColor=#82b366;" vertex="1" parent="1">
          <mxGeometry x="560" y="1470" width="200" height="100" as="geometry" />
        </mxCell>
        <mxCell id="0cWSvdugOwKaCXbmKs3s-54" value="TMDB&lt;br&gt;[External Software System]&lt;br&gt;Database which&amp;nbsp; stores all required movie informations" style="rounded=0;whiteSpace=wrap;html=1;fillColor=#f5f5f5;fontColor=#333333;strokeColor=#666666;" vertex="1" parent="1">
          <mxGeometry x="341.5" y="1890" width="160" height="60" as="geometry" />
        </mxCell>
        <mxCell id="0cWSvdugOwKaCXbmKs3s-57" value="API Application&lt;br&gt;&lt;div style=&quot;&quot;&gt;&lt;span style=&quot;font-size: 10px; background-color: initial;&quot;&gt;[Container]&lt;/span&gt;&lt;/div&gt;" style="text;html=1;strokeColor=none;fillColor=none;align=left;verticalAlign=middle;whiteSpace=wrap;rounded=0;" vertex="1" parent="1">
          <mxGeometry x="60" y="1700" width="140" height="30" as="geometry" />
        </mxCell>
        <mxCell id="0cWSvdugOwKaCXbmKs3s-58" value="" style="endArrow=none;html=1;rounded=0;dashed=1;" edge="1" parent="1">
          <mxGeometry width="50" height="50" relative="1" as="geometry">
            <mxPoint x="60" y="1730" as="sourcePoint" />
            <mxPoint x="60" y="1390" as="targetPoint" />
          </mxGeometry>
        </mxCell>
        <mxCell id="0cWSvdugOwKaCXbmKs3s-59" value="" style="endArrow=none;html=1;rounded=0;dashed=1;" edge="1" parent="1">
          <mxGeometry width="50" height="50" relative="1" as="geometry">
            <mxPoint x="780" y="1730" as="sourcePoint" />
            <mxPoint x="780" y="1390" as="targetPoint" />
          </mxGeometry>
        </mxCell>
        <mxCell id="0cWSvdugOwKaCXbmKs3s-60" value="" style="endArrow=none;html=1;rounded=0;dashed=1;" edge="1" parent="1">
          <mxGeometry width="50" height="50" relative="1" as="geometry">
            <mxPoint x="60" y="1730" as="sourcePoint" />
            <mxPoint x="780" y="1730" as="targetPoint" />
          </mxGeometry>
        </mxCell>
        <mxCell id="0cWSvdugOwKaCXbmKs3s-61" value="" style="endArrow=none;html=1;rounded=0;dashed=1;" edge="1" parent="1">
          <mxGeometry width="50" height="50" relative="1" as="geometry">
            <mxPoint x="60" y="1390" as="sourcePoint" />
            <mxPoint x="780" y="1390" as="targetPoint" />
          </mxGeometry>
        </mxCell>
        <mxCell id="0cWSvdugOwKaCXbmKs3s-64" style="edgeStyle=orthogonalEdgeStyle;rounded=0;orthogonalLoop=1;jettySize=auto;html=1;exitX=0.5;exitY=1;exitDx=0;exitDy=0;dashed=1;" edge="1" parent="1" source="0cWSvdugOwKaCXbmKs3s-66" target="0cWSvdugOwKaCXbmKs3s-72">
          <mxGeometry relative="1" as="geometry" />
        </mxCell>
        <mxCell id="0cWSvdugOwKaCXbmKs3s-65" value="uses" style="edgeLabel;html=1;align=center;verticalAlign=middle;resizable=0;points=[];rotation=90;" connectable="0" vertex="1" parent="0cWSvdugOwKaCXbmKs3s-64">
          <mxGeometry x="-0.5903" y="2" relative="1" as="geometry">
            <mxPoint x="-2" y="23" as="offset" />
          </mxGeometry>
        </mxCell>
        <mxCell id="0cWSvdugOwKaCXbmKs3s-66" value="Data Enhancement Application&lt;br style=&quot;border-color: var(--border-color);&quot;&gt;&lt;font style=&quot;border-color: var(--border-color); font-size: 10px;&quot;&gt;[Container: Java and Spring MVC]&lt;br style=&quot;border-color: var(--border-color);&quot;&gt;&lt;/font&gt;Enhances the raw data, such that it can be provided to the user" style="rounded=0;whiteSpace=wrap;html=1;fillColor=#d5e8d4;strokeColor=#82b366;" vertex="1" parent="1">
          <mxGeometry x="1093" y="1280" width="160" height="100" as="geometry" />
        </mxCell>
        <mxCell id="0cWSvdugOwKaCXbmKs3s-67" style="edgeStyle=orthogonalEdgeStyle;rounded=0;orthogonalLoop=1;jettySize=auto;html=1;entryX=0;entryY=0.5;entryDx=0;entryDy=0;exitX=0.5;exitY=1;exitDx=0;exitDy=0;dashed=1;endArrow=none;endFill=0;startArrow=classic;startFill=1;" edge="1" parent="1" source="0cWSvdugOwKaCXbmKs3s-69" target="0cWSvdugOwKaCXbmKs3s-72">
          <mxGeometry relative="1" as="geometry" />
        </mxCell>
        <mxCell id="0cWSvdugOwKaCXbmKs3s-68" value="uses" style="edgeLabel;html=1;align=center;verticalAlign=middle;resizable=0;points=[];" connectable="0" vertex="1" parent="0cWSvdugOwKaCXbmKs3s-67">
          <mxGeometry x="0.1647" y="-3" relative="1" as="geometry">
            <mxPoint as="offset" />
          </mxGeometry>
        </mxCell>
        <mxCell id="0cWSvdugOwKaCXbmKs3s-69" value="Data enhance Controller&lt;br style=&quot;border-color: var(--border-color);&quot;&gt;&lt;font style=&quot;border-color: var(--border-color); font-size: 10px;&quot;&gt;[Container: Java]&lt;/font&gt;&lt;br style=&quot;border-color: var(--border-color);&quot;&gt;Responsible for enhancing the collected data such that it can be provided to the end user." style="rounded=0;whiteSpace=wrap;html=1;fillColor=#d5e8d4;strokeColor=#82b366;" vertex="1" parent="1">
          <mxGeometry x="830" y="1470" width="180" height="100" as="geometry" />
        </mxCell>
        <mxCell id="0cWSvdugOwKaCXbmKs3s-70" style="edgeStyle=orthogonalEdgeStyle;rounded=0;orthogonalLoop=1;jettySize=auto;html=1;entryX=0.5;entryY=0;entryDx=0;entryDy=0;dashed=1;" edge="1" parent="1" source="0cWSvdugOwKaCXbmKs3s-72" target="0cWSvdugOwKaCXbmKs3s-85">
          <mxGeometry relative="1" as="geometry">
            <mxPoint x="1181.5" y="1890" as="targetPoint" />
          </mxGeometry>
        </mxCell>
        <mxCell id="0cWSvdugOwKaCXbmKs3s-71" value="Sends data to" style="edgeLabel;html=1;align=center;verticalAlign=middle;resizable=0;points=[];rotation=90;" connectable="0" vertex="1" parent="0cWSvdugOwKaCXbmKs3s-70">
          <mxGeometry x="-0.2619" relative="1" as="geometry">
            <mxPoint y="18" as="offset" />
          </mxGeometry>
        </mxCell>
        <mxCell id="0cWSvdugOwKaCXbmKs3s-72" value="API Controller&lt;br&gt;&lt;font style=&quot;font-size: 10px;&quot;&gt;[Component: Spring MVC Rest Controller]&lt;/font&gt;&lt;br&gt;Responsible to send the data to the web application." style="rounded=0;whiteSpace=wrap;html=1;fillColor=#d5e8d4;strokeColor=#82b366;" vertex="1" parent="1">
          <mxGeometry x="1074.5" y="1580" width="197" height="100" as="geometry" />
        </mxCell>
        <mxCell id="0cWSvdugOwKaCXbmKs3s-73" style="edgeStyle=orthogonalEdgeStyle;rounded=0;orthogonalLoop=1;jettySize=auto;html=1;entryX=1;entryY=0.5;entryDx=0;entryDy=0;exitX=0.5;exitY=1;exitDx=0;exitDy=0;dashed=1;startArrow=classic;startFill=1;endArrow=none;endFill=0;" edge="1" parent="1" source="0cWSvdugOwKaCXbmKs3s-75" target="0cWSvdugOwKaCXbmKs3s-72">
          <mxGeometry relative="1" as="geometry" />
        </mxCell>
        <mxCell id="0cWSvdugOwKaCXbmKs3s-74" value="uses" style="edgeLabel;html=1;align=center;verticalAlign=middle;resizable=0;points=[];" connectable="0" vertex="1" parent="0cWSvdugOwKaCXbmKs3s-73">
          <mxGeometry x="0.1946" y="3" relative="1" as="geometry">
            <mxPoint as="offset" />
          </mxGeometry>
        </mxCell>
        <mxCell id="0cWSvdugOwKaCXbmKs3s-75" value="Api Route Controller&lt;br style=&quot;border-color: var(--border-color);&quot;&gt;&lt;font style=&quot;border-color: var(--border-color); font-size: 10px;&quot;&gt;[Component: Java]&lt;/font&gt;&lt;br style=&quot;border-color: var(--border-color);&quot;&gt;Provides logic to get the required API routes, to send the data to the frontend" style="rounded=0;whiteSpace=wrap;html=1;fillColor=#d5e8d4;strokeColor=#82b366;" vertex="1" parent="1">
          <mxGeometry x="1340" y="1470" width="180" height="100" as="geometry" />
        </mxCell>
        <mxCell id="0cWSvdugOwKaCXbmKs3s-77" value="Data Enhancement Application&lt;br&gt;&lt;div style=&quot;&quot;&gt;&lt;span style=&quot;font-size: 10px; background-color: initial;&quot;&gt;[Container]&lt;/span&gt;&lt;/div&gt;" style="text;html=1;strokeColor=none;fillColor=none;align=left;verticalAlign=middle;whiteSpace=wrap;rounded=0;" vertex="1" parent="1">
          <mxGeometry x="820" y="1700" width="170" height="30" as="geometry" />
        </mxCell>
        <mxCell id="0cWSvdugOwKaCXbmKs3s-78" value="" style="endArrow=none;html=1;rounded=0;dashed=1;" edge="1" parent="1">
          <mxGeometry width="50" height="50" relative="1" as="geometry">
            <mxPoint x="820" y="1730" as="sourcePoint" />
            <mxPoint x="820" y="1390" as="targetPoint" />
          </mxGeometry>
        </mxCell>
        <mxCell id="0cWSvdugOwKaCXbmKs3s-79" value="" style="endArrow=none;html=1;rounded=0;dashed=1;" edge="1" parent="1">
          <mxGeometry width="50" height="50" relative="1" as="geometry">
            <mxPoint x="1540" y="1730" as="sourcePoint" />
            <mxPoint x="1540" y="1390" as="targetPoint" />
          </mxGeometry>
        </mxCell>
        <mxCell id="0cWSvdugOwKaCXbmKs3s-80" value="" style="endArrow=none;html=1;rounded=0;dashed=1;" edge="1" parent="1">
          <mxGeometry width="50" height="50" relative="1" as="geometry">
            <mxPoint x="820" y="1730" as="sourcePoint" />
            <mxPoint x="1540" y="1730" as="targetPoint" />
          </mxGeometry>
        </mxCell>
        <mxCell id="0cWSvdugOwKaCXbmKs3s-81" value="" style="endArrow=none;html=1;rounded=0;dashed=1;" edge="1" parent="1">
          <mxGeometry width="50" height="50" relative="1" as="geometry">
            <mxPoint x="820" y="1390" as="sourcePoint" />
            <mxPoint x="1540" y="1390" as="targetPoint" />
          </mxGeometry>
        </mxCell>
        <mxCell id="0cWSvdugOwKaCXbmKs3s-82" value="Security Controller&lt;br&gt;&lt;font style=&quot;font-size: 10px;&quot;&gt;[Component: Spring Bean]&lt;/font&gt;&lt;br&gt;Provides functionality to load the API key." style="rounded=0;whiteSpace=wrap;html=1;fillColor=#d5e8d4;strokeColor=#82b366;" vertex="1" parent="1">
          <mxGeometry x="331.5" y="1400" width="180" height="100" as="geometry" />
        </mxCell>
        <mxCell id="0cWSvdugOwKaCXbmKs3s-85" value="Web Application&lt;br&gt;&lt;font style=&quot;font-size: 10px;&quot;&gt;[Container: JavaScript and ...]&lt;/font&gt;&lt;br&gt;Provides the functionality and the frontend for the user to view the required movie informations." style="rounded=0;whiteSpace=wrap;html=1;fillColor=#d5e8d4;strokeColor=#82b366;" vertex="1" parent="1">
          <mxGeometry x="1093" y="1890" width="160" height="100" as="geometry" />
        </mxCell>
      </root>
    </mxGraphModel>
  </diagram>
</mxfile>
